<?xml version="1.0" encoding="iso-8859-1"?>
<!-- Generator: Adobe Illustrator 19.0.0, SVG Export Plug-In . SVG Version: 6.00 Build 0)  -->
<svg version="1.1" id="Capa_1" xmlns="http://www.w3.org/2000/svg" xmlns:xlink="http://www.w3.org/1999/xlink" x="0px" y="0px"
	 viewBox="0 0 512 512" style="enable-background:new 0 0 512 512;" xml:space="preserve">
<g>
	<g>
		<path d="M511.636,43.789c-1.81-8.106-9.851-13.211-17.952-11.402l-89.467,19.964c-0.122,0.027-0.237,0.069-0.358,0.099
			c-0.317,0.079-0.632,0.161-0.942,0.261c-0.207,0.065-0.406,0.141-0.608,0.216c-0.249,0.091-0.497,0.183-0.74,0.288
			c-0.236,0.1-0.463,0.212-0.692,0.323c-0.201,0.099-0.403,0.198-0.6,0.306c-0.239,0.13-0.47,0.27-0.7,0.412
			c-0.184,0.113-0.366,0.228-0.544,0.349c-0.217,0.147-0.426,0.302-0.634,0.46c-0.185,0.14-0.369,0.284-0.547,0.433
			c-0.181,0.151-0.356,0.309-0.529,0.468c-0.193,0.176-0.381,0.356-0.564,0.542c-0.145,0.148-0.285,0.301-0.423,0.454
			c-0.191,0.213-0.379,0.428-0.559,0.652c-0.119,0.148-0.233,0.301-0.346,0.454c-0.175,0.236-0.347,0.474-0.508,0.722
			c-0.109,0.167-0.212,0.339-0.314,0.51c-0.143,0.239-0.284,0.478-0.414,0.726c-0.111,0.212-0.213,0.429-0.314,0.646
			s-0.203,0.431-0.294,0.654c-0.114,0.278-0.213,0.561-0.311,0.847c-0.046,0.135-0.104,0.263-0.146,0.4l-18.71,60.287H28.688
			c-9.206,0-17.616,4.251-23.076,11.662c-5.46,7.411-7.027,16.704-4.298,25.496l49.375,159.099
			c3.744,12.062,14.745,20.166,27.374,20.166h229.19l-4.432,14.282H47.137c-8.305,0-15.039,6.733-15.039,15.039
			c0,8.305,6.733,15.039,15.039,15.039h264.572c0.33,0,0.653-0.028,0.977-0.049c0.407,0.033,0.813,0.053,1.217,0.053
			c6.414,0,12.357-4.137,14.358-10.585l16.741-53.943v-0.001l10.786-34.753L419.27,79.811l80.962-18.067
			C508.341,59.933,513.445,51.895,511.636,43.789z M126.573,309.204H79.106l-19.11-61.575h66.577V309.204z M126.573,217.552H50.661
			l-20.053-64.615h95.964V217.552z M235.854,309.204H156.65v-61.575h79.204V309.204z M235.854,217.552H156.65v-64.615h79.204
			V217.552z M330.536,264.253l-13.95,44.951h-50.654v-61.575h69.764L330.536,264.253z M345.03,217.552h-79.099v-64.615h99.151
			L345.03,217.552z"/>
	</g>
</g>
<g>
	<g>
		<path d="M109.606,390.619c-24.635,0-44.678,20.043-44.678,44.679s20.043,44.679,44.678,44.679
			c24.636,0,44.679-20.043,44.679-44.679S134.243,390.619,109.606,390.619z M109.606,449.9c-8.051,0-14.601-6.55-14.601-14.602
			c0-8.052,6.55-14.602,14.601-14.602c8.052,0,14.602,6.55,14.602,14.602C124.208,443.35,117.658,449.9,109.606,449.9z"/>
	</g>
</g>
<g>
	<g>
		<path d="M258.991,390.619c-24.635,0-44.678,20.043-44.678,44.679s20.043,44.679,44.678,44.679
			c24.636,0,44.679-20.043,44.679-44.679S283.627,390.619,258.991,390.619z M258.991,449.9c-8.051,0-14.601-6.55-14.601-14.602
			c0-8.052,6.55-14.602,14.601-14.602c8.052,0,14.602,6.55,14.602,14.602C273.592,443.35,267.042,449.9,258.991,449.9z"/>
	</g>
</g>
<g>
</g>
<g>
</g>
<g>
</g>
<g>
</g>
<g>
</g>
<g>
</g>
<g>
</g>
<g>
</g>
<g>
</g>
<g>
</g>
<g>
</g>
<g>
</g>
<g>
</g>
<g>
</g>
<g>
</g>
</svg>
