<svg width="616" height="825" xmlns="http://www.w3.org/2000/svg" xmlns:xlink="http://www.w3.org/1999/xlink" overflow="hidden"><defs><clipPath id="clip0"><path d="M239-1 855-1 855 824 239 824Z" fill-rule="evenodd" clip-rule="evenodd"/></clipPath><clipPath id="clip1"><path d="M291 0 808 0 808 518 291 518Z" fill-rule="evenodd" clip-rule="evenodd"/></clipPath><clipPath id="clip2"><path d="M291 0 808 0 808 518 291 518Z" fill-rule="evenodd" clip-rule="evenodd"/></clipPath><clipPath id="clip3"><path d="M291 0 808 0 808 518 291 518Z" fill-rule="evenodd" clip-rule="evenodd"/></clipPath></defs><g clip-path="url(#clip0)" transform="translate(-239 1)"><g clip-path="url(#clip1)"><g clip-path="url(#clip2)"><g clip-path="url(#clip3)"><path d="M447.38 500.007 408.086 125.814C407.262 117.981 400.659 112.032 392.782 112.032L318.928 112.032 318.928 95.1939C318.928 42.7059 276.222-2.86992e-14 223.734-2.86992e-14 171.242-2.86992e-14 128.536 42.7059 128.536 95.1939L128.536 112.032 54.6811 112.032C46.8041 112.032 40.2012 117.981 39.3768 125.814L0.0828321 500.007C-0.370773 504.341 1.03737 508.668 3.95228 511.911 6.87113 515.149 11.0285 516.999 15.3871 516.999L432.072 516.999C436.435 516.999 440.592 515.149 443.507 511.911 446.43 508.668 447.834 504.341 447.38 500.007ZM159.31 95.1939C159.31 59.6747 188.21 30.7741 223.734 30.7741 259.253 30.7741 288.153 59.6747 288.153 95.1939L288.153 112.032 159.31 112.032ZM32.4742 486.225 68.5377 142.807 128.536 142.807 128.536 176.717C128.536 185.213 135.427 192.104 143.923 192.104 152.419 192.104 159.31 185.213 159.31 176.717L159.31 142.807 288.153 142.807 288.153 176.717C288.153 185.213 295.044 192.104 303.54 192.104 312.037 192.104 318.928 185.213 318.928 176.717L318.928 142.807 378.926 142.807 414.989 486.225Z" transform="matrix(1 0 -0 1.00193 326.342 0)"/></g></g></g><text font-family="Arial Rounded MT,Arial Rounded MT_MSFontService,sans-serif" font-weight="700" font-size="184" transform="translate(350.276 673)">Cart</text></g></svg>